<?xml version="1.0" encoding="utf-8"?>
<!-- Generator: Adobe Illustrator 25.0.0, SVG Export Plug-In . SVG Version: 6.00 Build 0)  -->
<svg version="1.1" id="Layer_1" xmlns="http://www.w3.org/2000/svg" xmlns:xlink="http://www.w3.org/1999/xlink" x="0px" y="0px"
	 viewBox="0 0 202.1 197.4" style="enable-background:new 0 0 202.1 197.4;" xml:space="preserve">
<g>
	<line x1="187.1" y1="184.7" x2="108.1" y2="105.8"/>
	<line x1="94" y1="91.6" x2="15" y2="12.6"/>
	<path d="M194.2,177.7c3.9,3.9,3.9,10.2,0,14.1c-1.9,2-4.5,2.9-7.1,2.9s-5.1-1-7.1-2.9l-79-79l-79,79c-1.9,2-4.5,2.9-7.1,2.9
		c-2.6,0-5.1-1-7.1-2.9c-3.9-3.9-3.9-10.2,0-14.1l79-79l-79-79C4,15.8,4,9.5,7.9,5.5c3.9-3.9,10.2-3.9,14.1,0l79,79l79-79
		c3.9-3.9,10.2-3.9,14.1,0c3.9,3.9,3.9,10.2,0,14.1l-79,79L194.2,177.7z"/>
</g>
</svg>
